<svg width="264" height="44" viewBox="0 0 264 44" fill="none" xmlns="http://www.w3.org/2000/svg">
<path d="M7.04188 27.72H16.0019V33H0.201878V4.92H7.04188V27.72ZM39.5044 21.48C39.5044 22.12 39.4644 22.7867 39.3844 23.48H23.9044C24.011 24.8667 24.451 25.9333 25.2244 26.68C26.0244 27.4 26.9977 27.76 28.1444 27.76C29.851 27.76 31.0377 27.04 31.7044 25.6H38.9844C38.611 27.0667 37.931 28.3867 36.9444 29.56C35.9844 30.7333 34.771 31.6533 33.3044 32.32C31.8377 32.9867 30.1977 33.32 28.3844 33.32C26.1977 33.32 24.251 32.8533 22.5444 31.92C20.8377 30.9867 19.5044 29.6533 18.5444 27.92C17.5844 26.1867 17.1044 24.16 17.1044 21.84C17.1044 19.52 17.571 17.4933 18.5044 15.76C19.4644 14.0267 20.7977 12.6933 22.5044 11.76C24.211 10.8267 26.171 10.36 28.3844 10.36C30.5444 10.36 32.4644 10.8133 34.1444 11.72C35.8244 12.6267 37.131 13.92 38.0644 15.6C39.0244 17.28 39.5044 19.24 39.5044 21.48ZM32.5044 19.68C32.5044 18.5067 32.1044 17.5733 31.3044 16.88C30.5044 16.1867 29.5044 15.84 28.3044 15.84C27.1577 15.84 26.1844 16.1733 25.3844 16.84C24.611 17.5067 24.131 18.4533 23.9444 19.68H32.5044ZM40.9528 21.8C40.9528 19.5067 41.3795 17.4933 42.2328 15.76C43.1128 14.0267 44.2995 12.6933 45.7928 11.76C47.2862 10.8267 48.9528 10.36 50.7928 10.36C52.3662 10.36 53.7395 10.68 54.9128 11.32C56.1128 11.96 57.0328 12.8 57.6728 13.84V10.68H64.5128V33H57.6728V29.84C57.0062 30.88 56.0728 31.72 54.8728 32.36C53.6995 33 52.3262 33.32 50.7528 33.32C48.9395 33.32 47.2862 32.8533 45.7928 31.92C44.2995 30.96 43.1128 29.6133 42.2328 27.88C41.3795 26.12 40.9528 24.0933 40.9528 21.8ZM57.6728 21.84C57.6728 20.1333 57.1928 18.7867 56.2328 17.8C55.2995 16.8133 54.1528 16.32 52.7928 16.32C51.4328 16.32 50.2728 16.8133 49.3128 17.8C48.3795 18.76 47.9128 20.0933 47.9128 21.8C47.9128 23.5067 48.3795 24.8667 49.3128 25.88C50.2728 26.8667 51.4328 27.36 52.7928 27.36C54.1528 27.36 55.2995 26.8667 56.2328 25.88C57.1928 24.8933 57.6728 23.5467 57.6728 21.84ZM67.3013 21.8C67.3013 19.5067 67.7279 17.4933 68.5813 15.76C69.4613 14.0267 70.6479 12.6933 72.1413 11.76C73.6346 10.8267 75.3013 10.36 77.1413 10.36C78.6079 10.36 79.9413 10.6667 81.1413 11.28C82.3679 11.8933 83.3279 12.72 84.0213 13.76V3.4H90.8613V33H84.0213V29.8C83.3813 30.8667 82.4613 31.72 81.2613 32.36C80.0879 33 78.7146 33.32 77.1413 33.32C75.3013 33.32 73.6346 32.8533 72.1413 31.92C70.6479 30.96 69.4613 29.6133 68.5813 27.88C67.7279 26.12 67.3013 24.0933 67.3013 21.8ZM84.0213 21.84C84.0213 20.1333 83.5413 18.7867 82.5813 17.8C81.6479 16.8133 80.5013 16.32 79.1413 16.32C77.7813 16.32 76.6213 16.8133 75.6613 17.8C74.7279 18.76 74.2613 20.0933 74.2613 21.8C74.2613 23.5067 74.7279 24.8667 75.6613 25.88C76.6213 26.8667 77.7813 27.36 79.1413 27.36C80.5013 27.36 81.6479 26.8667 82.5813 25.88C83.5413 24.8933 84.0213 23.5467 84.0213 21.84Z" fill="#0057FF"/>
<path d="M129.046 4.92L119.086 33H110.526L100.566 4.92H107.846L114.806 26.12L121.806 4.92H129.046ZM152.145 21.48C152.145 22.12 152.105 22.7867 152.025 23.48H136.545C136.652 24.8667 137.092 25.9333 137.865 26.68C138.665 27.4 139.638 27.76 140.785 27.76C142.492 27.76 143.678 27.04 144.345 25.6H151.625C151.252 27.0667 150.572 28.3867 149.585 29.56C148.625 30.7333 147.412 31.6533 145.945 32.32C144.478 32.9867 142.838 33.32 141.025 33.32C138.838 33.32 136.892 32.8533 135.185 31.92C133.478 30.9867 132.145 29.6533 131.185 27.92C130.225 26.1867 129.745 24.16 129.745 21.84C129.745 19.52 130.212 17.4933 131.145 15.76C132.105 14.0267 133.438 12.6933 135.145 11.76C136.852 10.8267 138.812 10.36 141.025 10.36C143.185 10.36 145.105 10.8133 146.785 11.72C148.465 12.6267 149.772 13.92 150.705 15.6C151.665 17.28 152.145 19.24 152.145 21.48ZM145.145 19.68C145.145 18.5067 144.745 17.5733 143.945 16.88C143.145 16.1867 142.145 15.84 140.945 15.84C139.798 15.84 138.825 16.1733 138.025 16.84C137.252 17.5067 136.772 18.4533 136.585 19.68H145.145ZM161.793 3.4V33H154.953V3.4H161.793ZM176.11 33.32C173.924 33.32 171.95 32.8533 170.19 31.92C168.457 30.9867 167.084 29.6533 166.07 27.92C165.084 26.1867 164.59 24.16 164.59 21.84C164.59 19.5467 165.097 17.5333 166.11 15.8C167.124 14.04 168.51 12.6933 170.27 11.76C172.03 10.8267 174.004 10.36 176.19 10.36C178.377 10.36 180.35 10.8267 182.11 11.76C183.87 12.6933 185.257 14.04 186.27 15.8C187.284 17.5333 187.79 19.5467 187.79 21.84C187.79 24.1333 187.27 26.16 186.23 27.92C185.217 29.6533 183.817 30.9867 182.03 31.92C180.27 32.8533 178.297 33.32 176.11 33.32ZM176.11 27.4C177.417 27.4 178.524 26.92 179.43 25.96C180.364 25 180.83 23.6267 180.83 21.84C180.83 20.0533 180.377 18.68 179.47 17.72C178.59 16.76 177.497 16.28 176.19 16.28C174.857 16.28 173.75 16.76 172.87 17.72C171.99 18.6533 171.55 20.0267 171.55 21.84C171.55 23.6267 171.977 25 172.83 25.96C173.71 26.92 174.804 27.4 176.11 27.4ZM189.259 21.84C189.259 19.52 189.726 17.4933 190.659 15.76C191.619 14.0267 192.939 12.6933 194.619 11.76C196.326 10.8267 198.272 10.36 200.459 10.36C203.259 10.36 205.592 11.0933 207.459 12.56C209.352 14.0267 210.592 16.0933 211.179 18.76H203.899C203.286 17.0533 202.099 16.2 200.339 16.2C199.086 16.2 198.086 16.6933 197.339 17.68C196.592 18.64 196.219 20.0267 196.219 21.84C196.219 23.6533 196.592 25.0533 197.339 26.04C198.086 27 199.086 27.48 200.339 27.48C202.099 27.48 203.286 26.6267 203.899 24.92H211.179C210.592 27.5333 209.352 29.5867 207.459 31.08C205.566 32.5733 203.232 33.32 200.459 33.32C198.272 33.32 196.326 32.8533 194.619 31.92C192.939 30.9867 191.619 29.6533 190.659 27.92C189.726 26.1867 189.259 24.16 189.259 21.84ZM217.478 8.36C216.278 8.36 215.291 8.01333 214.518 7.32C213.771 6.6 213.398 5.72 213.398 4.68C213.398 3.61333 213.771 2.73333 214.518 2.04C215.291 1.32 216.278 0.959998 217.478 0.959998C218.651 0.959998 219.611 1.32 220.358 2.04C221.131 2.73333 221.518 3.61333 221.518 4.68C221.518 5.72 221.131 6.6 220.358 7.32C219.611 8.01333 218.651 8.36 217.478 8.36ZM220.878 10.68V33H214.038V10.68H220.878ZM237.475 27.2V33H233.995C231.515 33 229.581 32.4 228.195 31.2C226.808 29.9733 226.115 27.9867 226.115 25.24V16.36H223.395V10.68H226.115V5.24H232.955V10.68H237.435V16.36H232.955V25.32C232.955 25.9867 233.115 26.4667 233.435 26.76C233.755 27.0533 234.288 27.2 235.035 27.2H237.475ZM263.285 10.68L249.285 43.6H241.925L247.045 32.24L237.965 10.68H245.605L250.765 24.64L255.885 10.68H263.285Z" fill="black"/>
</svg>
